<svg xmlns="http://www.w3.org/2000/svg" viewBox="0 0 640 360" role="img" aria-label="Coordenada x">
  <defs>
    <marker id="arrow" viewBox="0 0 10 10" refX="8" refY="5" markerWidth="6" markerHeight="6" orient="auto-start-reverse">
      <path d="M 0 0 L 10 5 L 0 10 z" fill="#082b36"/>
    </marker>
  </defs>
  <rect width="640" height="360" rx="18" fill="#f7f5e8"/>
  <text x="320" y="34" text-anchor="middle" font-size="24" font-weight="900" fill="#197a95" font-family="Arial, sans-serif">Coordenada x</text>
  <line x1="110" y1="332" x2="110" y2="52" stroke="#dce7ea" stroke-width="1" stroke-linecap="round"/>
  <text x="110" y="240" text-anchor="middle" font-size="12" font-weight="600" fill="#526a72" font-family="Arial, sans-serif">-5</text>
  <line x1="148" y1="332" x2="148" y2="52" stroke="#dce7ea" stroke-width="1" stroke-linecap="round"/>
  <text x="148" y="240" text-anchor="middle" font-size="12" font-weight="600" fill="#526a72" font-family="Arial, sans-serif">-4</text>
  <line x1="186" y1="332" x2="186" y2="52" stroke="#dce7ea" stroke-width="1" stroke-linecap="round"/>
  <text x="186" y="240" text-anchor="middle" font-size="12" font-weight="600" fill="#526a72" font-family="Arial, sans-serif">-3</text>
  <line x1="224" y1="332" x2="224" y2="52" stroke="#dce7ea" stroke-width="1" stroke-linecap="round"/>
  <text x="224" y="240" text-anchor="middle" font-size="12" font-weight="600" fill="#526a72" font-family="Arial, sans-serif">-2</text>
  <line x1="262" y1="332" x2="262" y2="52" stroke="#dce7ea" stroke-width="1" stroke-linecap="round"/>
  <text x="262" y="240" text-anchor="middle" font-size="12" font-weight="600" fill="#526a72" font-family="Arial, sans-serif">-1</text>
  <line x1="300" y1="332" x2="300" y2="52" stroke="#dce7ea" stroke-width="1" stroke-linecap="round"/>
  <line x1="338" y1="332" x2="338" y2="52" stroke="#dce7ea" stroke-width="1" stroke-linecap="round"/>
  <text x="338" y="240" text-anchor="middle" font-size="12" font-weight="600" fill="#526a72" font-family="Arial, sans-serif">1</text>
  <line x1="376" y1="332" x2="376" y2="52" stroke="#dce7ea" stroke-width="1" stroke-linecap="round"/>
  <text x="376" y="240" text-anchor="middle" font-size="12" font-weight="600" fill="#526a72" font-family="Arial, sans-serif">2</text>
  <line x1="414" y1="332" x2="414" y2="52" stroke="#dce7ea" stroke-width="1" stroke-linecap="round"/>
  <text x="414" y="240" text-anchor="middle" font-size="12" font-weight="600" fill="#526a72" font-family="Arial, sans-serif">3</text>
  <line x1="452" y1="332" x2="452" y2="52" stroke="#dce7ea" stroke-width="1" stroke-linecap="round"/>
  <text x="452" y="240" text-anchor="middle" font-size="12" font-weight="600" fill="#526a72" font-family="Arial, sans-serif">4</text>
  <line x1="490" y1="332" x2="490" y2="52" stroke="#dce7ea" stroke-width="1" stroke-linecap="round"/>
  <text x="490" y="240" text-anchor="middle" font-size="12" font-weight="600" fill="#526a72" font-family="Arial, sans-serif">5</text>
  <line x1="528" y1="332" x2="528" y2="52" stroke="#dce7ea" stroke-width="1" stroke-linecap="round"/>
  <text x="528" y="240" text-anchor="middle" font-size="12" font-weight="600" fill="#526a72" font-family="Arial, sans-serif">6</text>
  <line x1="566" y1="332" x2="566" y2="52" stroke="#dce7ea" stroke-width="1" stroke-linecap="round"/>
  <text x="566" y="240" text-anchor="middle" font-size="12" font-weight="600" fill="#526a72" font-family="Arial, sans-serif">7</text>
  <line x1="110" y1="332" x2="566" y2="332" stroke="#dce7ea" stroke-width="1" stroke-linecap="round"/>
  <text x="282" y="336" text-anchor="middle" font-size="12" font-weight="600" fill="#526a72" font-family="Arial, sans-serif">-4</text>
  <line x1="110" y1="304" x2="566" y2="304" stroke="#dce7ea" stroke-width="1" stroke-linecap="round"/>
  <text x="282" y="308" text-anchor="middle" font-size="12" font-weight="600" fill="#526a72" font-family="Arial, sans-serif">-3</text>
  <line x1="110" y1="276" x2="566" y2="276" stroke="#dce7ea" stroke-width="1" stroke-linecap="round"/>
  <text x="282" y="280" text-anchor="middle" font-size="12" font-weight="600" fill="#526a72" font-family="Arial, sans-serif">-2</text>
  <line x1="110" y1="248" x2="566" y2="248" stroke="#dce7ea" stroke-width="1" stroke-linecap="round"/>
  <text x="282" y="252" text-anchor="middle" font-size="12" font-weight="600" fill="#526a72" font-family="Arial, sans-serif">-1</text>
  <line x1="110" y1="220" x2="566" y2="220" stroke="#dce7ea" stroke-width="1" stroke-linecap="round"/>
  <line x1="110" y1="192" x2="566" y2="192" stroke="#dce7ea" stroke-width="1" stroke-linecap="round"/>
  <text x="282" y="196" text-anchor="middle" font-size="12" font-weight="600" fill="#526a72" font-family="Arial, sans-serif">1</text>
  <line x1="110" y1="164" x2="566" y2="164" stroke="#dce7ea" stroke-width="1" stroke-linecap="round"/>
  <text x="282" y="168" text-anchor="middle" font-size="12" font-weight="600" fill="#526a72" font-family="Arial, sans-serif">2</text>
  <line x1="110" y1="136" x2="566" y2="136" stroke="#dce7ea" stroke-width="1" stroke-linecap="round"/>
  <text x="282" y="140" text-anchor="middle" font-size="12" font-weight="600" fill="#526a72" font-family="Arial, sans-serif">3</text>
  <line x1="110" y1="108" x2="566" y2="108" stroke="#dce7ea" stroke-width="1" stroke-linecap="round"/>
  <text x="282" y="112" text-anchor="middle" font-size="12" font-weight="600" fill="#526a72" font-family="Arial, sans-serif">4</text>
  <line x1="110" y1="80" x2="566" y2="80" stroke="#dce7ea" stroke-width="1" stroke-linecap="round"/>
  <text x="282" y="84" text-anchor="middle" font-size="12" font-weight="600" fill="#526a72" font-family="Arial, sans-serif">5</text>
  <line x1="110" y1="52" x2="566" y2="52" stroke="#dce7ea" stroke-width="1" stroke-linecap="round"/>
  <text x="282" y="56" text-anchor="middle" font-size="12" font-weight="600" fill="#526a72" font-family="Arial, sans-serif">6</text>
  <line x1="110" y1="220" x2="582" y2="220" stroke="#082b36" stroke-width="3" stroke-linecap="round" marker-end="url(#arrow)"/>
  <line x1="300" y1="348" x2="300" y2="36" stroke="#082b36" stroke-width="3" stroke-linecap="round" marker-end="url(#arrow)"/>
  <text x="594" y="226" text-anchor="middle" font-size="18" font-weight="900" fill="#082b36" font-family="Arial, sans-serif">x</text>
  <text x="270" y="58" text-anchor="middle" font-size="18" font-weight="900" fill="#082b36" font-family="Arial, sans-serif">y</text>
  <line x1="414" y1="220" x2="414" y2="276" stroke="#1f88b5" stroke-width="5" stroke-linecap="round" stroke-dasharray="6 6"/>
  <circle cx="414" cy="276" r="8" fill="#1f88b5" stroke="#082b36" stroke-width="2"/>
  <text x="432" y="266" text-anchor="start" font-size="17" font-weight="900" fill="#1f88b5" font-family="Arial, sans-serif">A(3,-2)</text>
</svg>
