<?xml version="1.0" standalone="no"?>
<svg xmlns="http://www.w3.org/2000/svg" version="1.1" width="406" height="406">
	<!-- Created with https://api.qrserver.com (QR Code API, see goQR.me/api for information) -->
	<title>QR Code</title>
	<desc>https://jeopardy-matematico-web.onrender.com/buzzer</desc>
	<rect style="fill:rgb(255, 255, 255);fill-opacity:1" x="0" y="0" width="406" height="406" />
	<g id="elements">
		<path style="fill:rgb(0, 0, 0)" d="M 0,0 l 14,0 0,14 -14,0 z M 14,0 l 14,0 0,14 -14,0 z M 28,0 l 14,0 0,14 -14,0 z M 42,0 l 14,0 0,14 -14,0 z M 56,0 l 14,0 0,14 -14,0 z M 70,0 l 14,0 0,14 -14,0 z M 84,0 l 14,0 0,14 -14,0 z M 126,0 l 14,0 0,14 -14,0 z M 140,0 l 14,0 0,14 -14,0 z M 154,0 l 14,0 0,14 -14,0 z M 182,0 l 14,0 0,14 -14,0 z M 224,0 l 14,0 0,14 -14,0 z M 252,0 l 14,0 0,14 -14,0 z M 266,0 l 14,0 0,14 -14,0 z M 280,0 l 14,0 0,14 -14,0 z M 308,0 l 14,0 0,14 -14,0 z M 322,0 l 14,0 0,14 -14,0 z M 336,0 l 14,0 0,14 -14,0 z M 350,0 l 14,0 0,14 -14,0 z M 364,0 l 14,0 0,14 -14,0 z M 378,0 l 14,0 0,14 -14,0 z M 392,0 l 14,0 0,14 -14,0 z M 0,14 l 14,0 0,14 -14,0 z M 84,14 l 14,0 0,14 -14,0 z M 112,14 l 14,0 0,14 -14,0 z M 182,14 l 14,0 0,14 -14,0 z M 196,14 l 14,0 0,14 -14,0 z M 210,14 l 14,0 0,14 -14,0 z M 224,14 l 14,0 0,14 -14,0 z M 252,14 l 14,0 0,14 -14,0 z M 280,14 l 14,0 0,14 -14,0 z M 308,14 l 14,0 0,14 -14,0 z M 392,14 l 14,0 0,14 -14,0 z M 0,28 l 14,0 0,14 -14,0 z M 28,28 l 14,0 0,14 -14,0 z M 42,28 l 14,0 0,14 -14,0 z M 56,28 l 14,0 0,14 -14,0 z M 84,28 l 14,0 0,14 -14,0 z M 126,28 l 14,0 0,14 -14,0 z M 210,28 l 14,0 0,14 -14,0 z M 224,28 l 14,0 0,14 -14,0 z M 280,28 l 14,0 0,14 -14,0 z M 308,28 l 14,0 0,14 -14,0 z M 336,28 l 14,0 0,14 -14,0 z M 350,28 l 14,0 0,14 -14,0 z M 364,28 l 14,0 0,14 -14,0 z M 392,28 l 14,0 0,14 -14,0 z M 0,42 l 14,0 0,14 -14,0 z M 28,42 l 14,0 0,14 -14,0 z M 42,42 l 14,0 0,14 -14,0 z M 56,42 l 14,0 0,14 -14,0 z M 84,42 l 14,0 0,14 -14,0 z M 112,42 l 14,0 0,14 -14,0 z M 126,42 l 14,0 0,14 -14,0 z M 168,42 l 14,0 0,14 -14,0 z M 182,42 l 14,0 0,14 -14,0 z M 196,42 l 14,0 0,14 -14,0 z M 210,42 l 14,0 0,14 -14,0 z M 238,42 l 14,0 0,14 -14,0 z M 266,42 l 14,0 0,14 -14,0 z M 308,42 l 14,0 0,14 -14,0 z M 336,42 l 14,0 0,14 -14,0 z M 350,42 l 14,0 0,14 -14,0 z M 364,42 l 14,0 0,14 -14,0 z M 392,42 l 14,0 0,14 -14,0 z M 0,56 l 14,0 0,14 -14,0 z M 28,56 l 14,0 0,14 -14,0 z M 42,56 l 14,0 0,14 -14,0 z M 56,56 l 14,0 0,14 -14,0 z M 84,56 l 14,0 0,14 -14,0 z M 154,56 l 14,0 0,14 -14,0 z M 224,56 l 14,0 0,14 -14,0 z M 266,56 l 14,0 0,14 -14,0 z M 280,56 l 14,0 0,14 -14,0 z M 308,56 l 14,0 0,14 -14,0 z M 336,56 l 14,0 0,14 -14,0 z M 350,56 l 14,0 0,14 -14,0 z M 364,56 l 14,0 0,14 -14,0 z M 392,56 l 14,0 0,14 -14,0 z M 0,70 l 14,0 0,14 -14,0 z M 84,70 l 14,0 0,14 -14,0 z M 112,70 l 14,0 0,14 -14,0 z M 140,70 l 14,0 0,14 -14,0 z M 168,70 l 14,0 0,14 -14,0 z M 196,70 l 14,0 0,14 -14,0 z M 210,70 l 14,0 0,14 -14,0 z M 280,70 l 14,0 0,14 -14,0 z M 308,70 l 14,0 0,14 -14,0 z M 392,70 l 14,0 0,14 -14,0 z M 0,84 l 14,0 0,14 -14,0 z M 14,84 l 14,0 0,14 -14,0 z M 28,84 l 14,0 0,14 -14,0 z M 42,84 l 14,0 0,14 -14,0 z M 56,84 l 14,0 0,14 -14,0 z M 70,84 l 14,0 0,14 -14,0 z M 84,84 l 14,0 0,14 -14,0 z M 112,84 l 14,0 0,14 -14,0 z M 140,84 l 14,0 0,14 -14,0 z M 168,84 l 14,0 0,14 -14,0 z M 196,84 l 14,0 0,14 -14,0 z M 224,84 l 14,0 0,14 -14,0 z M 252,84 l 14,0 0,14 -14,0 z M 280,84 l 14,0 0,14 -14,0 z M 308,84 l 14,0 0,14 -14,0 z M 322,84 l 14,0 0,14 -14,0 z M 336,84 l 14,0 0,14 -14,0 z M 350,84 l 14,0 0,14 -14,0 z M 364,84 l 14,0 0,14 -14,0 z M 378,84 l 14,0 0,14 -14,0 z M 392,84 l 14,0 0,14 -14,0 z M 154,98 l 14,0 0,14 -14,0 z M 168,98 l 14,0 0,14 -14,0 z M 252,98 l 14,0 0,14 -14,0 z M 280,98 l 14,0 0,14 -14,0 z M 0,112 l 14,0 0,14 -14,0 z M 14,112 l 14,0 0,14 -14,0 z M 28,112 l 14,0 0,14 -14,0 z M 42,112 l 14,0 0,14 -14,0 z M 56,112 l 14,0 0,14 -14,0 z M 84,112 l 14,0 0,14 -14,0 z M 98,112 l 14,0 0,14 -14,0 z M 112,112 l 14,0 0,14 -14,0 z M 126,112 l 14,0 0,14 -14,0 z M 140,112 l 14,0 0,14 -14,0 z M 154,112 l 14,0 0,14 -14,0 z M 182,112 l 14,0 0,14 -14,0 z M 196,112 l 14,0 0,14 -14,0 z M 210,112 l 14,0 0,14 -14,0 z M 224,112 l 14,0 0,14 -14,0 z M 238,112 l 14,0 0,14 -14,0 z M 294,112 l 14,0 0,14 -14,0 z M 322,112 l 14,0 0,14 -14,0 z M 350,112 l 14,0 0,14 -14,0 z M 378,112 l 14,0 0,14 -14,0 z M 14,126 l 14,0 0,14 -14,0 z M 28,126 l 14,0 0,14 -14,0 z M 56,126 l 14,0 0,14 -14,0 z M 70,126 l 14,0 0,14 -14,0 z M 112,126 l 14,0 0,14 -14,0 z M 126,126 l 14,0 0,14 -14,0 z M 154,126 l 14,0 0,14 -14,0 z M 224,126 l 14,0 0,14 -14,0 z M 238,126 l 14,0 0,14 -14,0 z M 252,126 l 14,0 0,14 -14,0 z M 266,126 l 14,0 0,14 -14,0 z M 280,126 l 14,0 0,14 -14,0 z M 294,126 l 14,0 0,14 -14,0 z M 308,126 l 14,0 0,14 -14,0 z M 322,126 l 14,0 0,14 -14,0 z M 336,126 l 14,0 0,14 -14,0 z M 392,126 l 14,0 0,14 -14,0 z M 0,140 l 14,0 0,14 -14,0 z M 28,140 l 14,0 0,14 -14,0 z M 56,140 l 14,0 0,14 -14,0 z M 70,140 l 14,0 0,14 -14,0 z M 84,140 l 14,0 0,14 -14,0 z M 98,140 l 14,0 0,14 -14,0 z M 112,140 l 14,0 0,14 -14,0 z M 126,140 l 14,0 0,14 -14,0 z M 168,140 l 14,0 0,14 -14,0 z M 196,140 l 14,0 0,14 -14,0 z M 210,140 l 14,0 0,14 -14,0 z M 252,140 l 14,0 0,14 -14,0 z M 294,140 l 14,0 0,14 -14,0 z M 336,140 l 14,0 0,14 -14,0 z M 0,154 l 14,0 0,14 -14,0 z M 28,154 l 14,0 0,14 -14,0 z M 70,154 l 14,0 0,14 -14,0 z M 112,154 l 14,0 0,14 -14,0 z M 126,154 l 14,0 0,14 -14,0 z M 140,154 l 14,0 0,14 -14,0 z M 154,154 l 14,0 0,14 -14,0 z M 168,154 l 14,0 0,14 -14,0 z M 196,154 l 14,0 0,14 -14,0 z M 224,154 l 14,0 0,14 -14,0 z M 280,154 l 14,0 0,14 -14,0 z M 336,154 l 14,0 0,14 -14,0 z M 350,154 l 14,0 0,14 -14,0 z M 378,154 l 14,0 0,14 -14,0 z M 0,168 l 14,0 0,14 -14,0 z M 56,168 l 14,0 0,14 -14,0 z M 84,168 l 14,0 0,14 -14,0 z M 126,168 l 14,0 0,14 -14,0 z M 154,168 l 14,0 0,14 -14,0 z M 182,168 l 14,0 0,14 -14,0 z M 196,168 l 14,0 0,14 -14,0 z M 238,168 l 14,0 0,14 -14,0 z M 280,168 l 14,0 0,14 -14,0 z M 322,168 l 14,0 0,14 -14,0 z M 350,168 l 14,0 0,14 -14,0 z M 364,168 l 14,0 0,14 -14,0 z M 42,182 l 14,0 0,14 -14,0 z M 70,182 l 14,0 0,14 -14,0 z M 112,182 l 14,0 0,14 -14,0 z M 140,182 l 14,0 0,14 -14,0 z M 154,182 l 14,0 0,14 -14,0 z M 196,182 l 14,0 0,14 -14,0 z M 224,182 l 14,0 0,14 -14,0 z M 252,182 l 14,0 0,14 -14,0 z M 266,182 l 14,0 0,14 -14,0 z M 280,182 l 14,0 0,14 -14,0 z M 308,182 l 14,0 0,14 -14,0 z M 322,182 l 14,0 0,14 -14,0 z M 336,182 l 14,0 0,14 -14,0 z M 392,182 l 14,0 0,14 -14,0 z M 0,196 l 14,0 0,14 -14,0 z M 70,196 l 14,0 0,14 -14,0 z M 84,196 l 14,0 0,14 -14,0 z M 140,196 l 14,0 0,14 -14,0 z M 182,196 l 14,0 0,14 -14,0 z M 210,196 l 14,0 0,14 -14,0 z M 224,196 l 14,0 0,14 -14,0 z M 238,196 l 14,0 0,14 -14,0 z M 252,196 l 14,0 0,14 -14,0 z M 280,196 l 14,0 0,14 -14,0 z M 294,196 l 14,0 0,14 -14,0 z M 322,196 l 14,0 0,14 -14,0 z M 350,196 l 14,0 0,14 -14,0 z M 364,196 l 14,0 0,14 -14,0 z M 98,210 l 14,0 0,14 -14,0 z M 112,210 l 14,0 0,14 -14,0 z M 224,210 l 14,0 0,14 -14,0 z M 294,210 l 14,0 0,14 -14,0 z M 308,210 l 14,0 0,14 -14,0 z M 322,210 l 14,0 0,14 -14,0 z M 378,210 l 14,0 0,14 -14,0 z M 0,224 l 14,0 0,14 -14,0 z M 14,224 l 14,0 0,14 -14,0 z M 28,224 l 14,0 0,14 -14,0 z M 42,224 l 14,0 0,14 -14,0 z M 84,224 l 14,0 0,14 -14,0 z M 98,224 l 14,0 0,14 -14,0 z M 112,224 l 14,0 0,14 -14,0 z M 126,224 l 14,0 0,14 -14,0 z M 182,224 l 14,0 0,14 -14,0 z M 238,224 l 14,0 0,14 -14,0 z M 350,224 l 14,0 0,14 -14,0 z M 364,224 l 14,0 0,14 -14,0 z M 0,238 l 14,0 0,14 -14,0 z M 14,238 l 14,0 0,14 -14,0 z M 42,238 l 14,0 0,14 -14,0 z M 56,238 l 14,0 0,14 -14,0 z M 112,238 l 14,0 0,14 -14,0 z M 126,238 l 14,0 0,14 -14,0 z M 140,238 l 14,0 0,14 -14,0 z M 154,238 l 14,0 0,14 -14,0 z M 182,238 l 14,0 0,14 -14,0 z M 224,238 l 14,0 0,14 -14,0 z M 238,238 l 14,0 0,14 -14,0 z M 252,238 l 14,0 0,14 -14,0 z M 266,238 l 14,0 0,14 -14,0 z M 280,238 l 14,0 0,14 -14,0 z M 294,238 l 14,0 0,14 -14,0 z M 308,238 l 14,0 0,14 -14,0 z M 322,238 l 14,0 0,14 -14,0 z M 336,238 l 14,0 0,14 -14,0 z M 364,238 l 14,0 0,14 -14,0 z M 392,238 l 14,0 0,14 -14,0 z M 0,252 l 14,0 0,14 -14,0 z M 42,252 l 14,0 0,14 -14,0 z M 70,252 l 14,0 0,14 -14,0 z M 84,252 l 14,0 0,14 -14,0 z M 112,252 l 14,0 0,14 -14,0 z M 140,252 l 14,0 0,14 -14,0 z M 168,252 l 14,0 0,14 -14,0 z M 182,252 l 14,0 0,14 -14,0 z M 196,252 l 14,0 0,14 -14,0 z M 210,252 l 14,0 0,14 -14,0 z M 238,252 l 14,0 0,14 -14,0 z M 280,252 l 14,0 0,14 -14,0 z M 322,252 l 14,0 0,14 -14,0 z M 336,252 l 14,0 0,14 -14,0 z M 364,252 l 14,0 0,14 -14,0 z M 0,266 l 14,0 0,14 -14,0 z M 42,266 l 14,0 0,14 -14,0 z M 112,266 l 14,0 0,14 -14,0 z M 154,266 l 14,0 0,14 -14,0 z M 168,266 l 14,0 0,14 -14,0 z M 224,266 l 14,0 0,14 -14,0 z M 280,266 l 14,0 0,14 -14,0 z M 294,266 l 14,0 0,14 -14,0 z M 322,266 l 14,0 0,14 -14,0 z M 336,266 l 14,0 0,14 -14,0 z M 378,266 l 14,0 0,14 -14,0 z M 0,280 l 14,0 0,14 -14,0 z M 42,280 l 14,0 0,14 -14,0 z M 70,280 l 14,0 0,14 -14,0 z M 84,280 l 14,0 0,14 -14,0 z M 98,280 l 14,0 0,14 -14,0 z M 112,280 l 14,0 0,14 -14,0 z M 126,280 l 14,0 0,14 -14,0 z M 140,280 l 14,0 0,14 -14,0 z M 168,280 l 14,0 0,14 -14,0 z M 182,280 l 14,0 0,14 -14,0 z M 196,280 l 14,0 0,14 -14,0 z M 238,280 l 14,0 0,14 -14,0 z M 252,280 l 14,0 0,14 -14,0 z M 266,280 l 14,0 0,14 -14,0 z M 280,280 l 14,0 0,14 -14,0 z M 294,280 l 14,0 0,14 -14,0 z M 308,280 l 14,0 0,14 -14,0 z M 322,280 l 14,0 0,14 -14,0 z M 336,280 l 14,0 0,14 -14,0 z M 364,280 l 14,0 0,14 -14,0 z M 378,280 l 14,0 0,14 -14,0 z M 392,280 l 14,0 0,14 -14,0 z M 112,294 l 14,0 0,14 -14,0 z M 126,294 l 14,0 0,14 -14,0 z M 140,294 l 14,0 0,14 -14,0 z M 154,294 l 14,0 0,14 -14,0 z M 238,294 l 14,0 0,14 -14,0 z M 252,294 l 14,0 0,14 -14,0 z M 280,294 l 14,0 0,14 -14,0 z M 336,294 l 14,0 0,14 -14,0 z M 350,294 l 14,0 0,14 -14,0 z M 364,294 l 14,0 0,14 -14,0 z M 378,294 l 14,0 0,14 -14,0 z M 392,294 l 14,0 0,14 -14,0 z M 0,308 l 14,0 0,14 -14,0 z M 14,308 l 14,0 0,14 -14,0 z M 28,308 l 14,0 0,14 -14,0 z M 42,308 l 14,0 0,14 -14,0 z M 56,308 l 14,0 0,14 -14,0 z M 70,308 l 14,0 0,14 -14,0 z M 84,308 l 14,0 0,14 -14,0 z M 112,308 l 14,0 0,14 -14,0 z M 182,308 l 14,0 0,14 -14,0 z M 210,308 l 14,0 0,14 -14,0 z M 266,308 l 14,0 0,14 -14,0 z M 280,308 l 14,0 0,14 -14,0 z M 308,308 l 14,0 0,14 -14,0 z M 336,308 l 14,0 0,14 -14,0 z M 350,308 l 14,0 0,14 -14,0 z M 364,308 l 14,0 0,14 -14,0 z M 0,322 l 14,0 0,14 -14,0 z M 84,322 l 14,0 0,14 -14,0 z M 154,322 l 14,0 0,14 -14,0 z M 196,322 l 14,0 0,14 -14,0 z M 266,322 l 14,0 0,14 -14,0 z M 280,322 l 14,0 0,14 -14,0 z M 336,322 l 14,0 0,14 -14,0 z M 392,322 l 14,0 0,14 -14,0 z M 0,336 l 14,0 0,14 -14,0 z M 28,336 l 14,0 0,14 -14,0 z M 42,336 l 14,0 0,14 -14,0 z M 56,336 l 14,0 0,14 -14,0 z M 84,336 l 14,0 0,14 -14,0 z M 112,336 l 14,0 0,14 -14,0 z M 140,336 l 14,0 0,14 -14,0 z M 154,336 l 14,0 0,14 -14,0 z M 168,336 l 14,0 0,14 -14,0 z M 182,336 l 14,0 0,14 -14,0 z M 196,336 l 14,0 0,14 -14,0 z M 210,336 l 14,0 0,14 -14,0 z M 238,336 l 14,0 0,14 -14,0 z M 280,336 l 14,0 0,14 -14,0 z M 294,336 l 14,0 0,14 -14,0 z M 308,336 l 14,0 0,14 -14,0 z M 322,336 l 14,0 0,14 -14,0 z M 336,336 l 14,0 0,14 -14,0 z M 364,336 l 14,0 0,14 -14,0 z M 378,336 l 14,0 0,14 -14,0 z M 0,350 l 14,0 0,14 -14,0 z M 28,350 l 14,0 0,14 -14,0 z M 42,350 l 14,0 0,14 -14,0 z M 56,350 l 14,0 0,14 -14,0 z M 84,350 l 14,0 0,14 -14,0 z M 112,350 l 14,0 0,14 -14,0 z M 126,350 l 14,0 0,14 -14,0 z M 154,350 l 14,0 0,14 -14,0 z M 168,350 l 14,0 0,14 -14,0 z M 182,350 l 14,0 0,14 -14,0 z M 224,350 l 14,0 0,14 -14,0 z M 266,350 l 14,0 0,14 -14,0 z M 350,350 l 14,0 0,14 -14,0 z M 364,350 l 14,0 0,14 -14,0 z M 392,350 l 14,0 0,14 -14,0 z M 0,364 l 14,0 0,14 -14,0 z M 28,364 l 14,0 0,14 -14,0 z M 42,364 l 14,0 0,14 -14,0 z M 56,364 l 14,0 0,14 -14,0 z M 84,364 l 14,0 0,14 -14,0 z M 112,364 l 14,0 0,14 -14,0 z M 182,364 l 14,0 0,14 -14,0 z M 196,364 l 14,0 0,14 -14,0 z M 210,364 l 14,0 0,14 -14,0 z M 224,364 l 14,0 0,14 -14,0 z M 238,364 l 14,0 0,14 -14,0 z M 266,364 l 14,0 0,14 -14,0 z M 280,364 l 14,0 0,14 -14,0 z M 308,364 l 14,0 0,14 -14,0 z M 322,364 l 14,0 0,14 -14,0 z M 336,364 l 14,0 0,14 -14,0 z M 350,364 l 14,0 0,14 -14,0 z M 364,364 l 14,0 0,14 -14,0 z M 378,364 l 14,0 0,14 -14,0 z M 0,378 l 14,0 0,14 -14,0 z M 84,378 l 14,0 0,14 -14,0 z M 112,378 l 14,0 0,14 -14,0 z M 140,378 l 14,0 0,14 -14,0 z M 196,378 l 14,0 0,14 -14,0 z M 210,378 l 14,0 0,14 -14,0 z M 224,378 l 14,0 0,14 -14,0 z M 280,378 l 14,0 0,14 -14,0 z M 294,378 l 14,0 0,14 -14,0 z M 308,378 l 14,0 0,14 -14,0 z M 350,378 l 14,0 0,14 -14,0 z M 378,378 l 14,0 0,14 -14,0 z M 0,392 l 14,0 0,14 -14,0 z M 14,392 l 14,0 0,14 -14,0 z M 28,392 l 14,0 0,14 -14,0 z M 42,392 l 14,0 0,14 -14,0 z M 56,392 l 14,0 0,14 -14,0 z M 70,392 l 14,0 0,14 -14,0 z M 84,392 l 14,0 0,14 -14,0 z M 112,392 l 14,0 0,14 -14,0 z M 154,392 l 14,0 0,14 -14,0 z M 168,392 l 14,0 0,14 -14,0 z M 182,392 l 14,0 0,14 -14,0 z M 196,392 l 14,0 0,14 -14,0 z M 210,392 l 14,0 0,14 -14,0 z M 238,392 l 14,0 0,14 -14,0 z M 364,392 l 14,0 0,14 -14,0 z " />
	</g>
</svg>
